<?xml version="1.0" encoding="utf-8"?>
<!-- Generator: Adobe Illustrator 25.4.1, SVG Export Plug-In . SVG Version: 6.00 Build 0)  -->
<svg version="1.1" id="Layer_1" xmlns="http://www.w3.org/2000/svg" xmlns:xlink="http://www.w3.org/1999/xlink" x="0px" y="0px"
	 viewBox="0 0 107 83" style="enable-background:new 0 0 107 83;" xml:space="preserve">
<style type="text/css">
	.st0{fill:#FFFFFF;}
</style>
<g id="BLocking">
</g>
<g id="Type">
</g>
<g id="Layer_6">
	<g>
		<path class="st0" d="M78.52,81.49c-2.09-2.88-3.92-5.9-5.52-9.11c1.01-0.43,2-0.83,2.98-1.28c0.99-0.46,1.97-0.95,2.95-1.44
			c0.96-0.49,1.9-1.02,2.84-1.61c-0.07-0.08-0.11-0.15-0.17-0.19c-0.59-0.47-1.19-0.94-1.78-1.42c-0.18-0.14-0.32-0.15-0.52-0.05
			c-2.46,1.16-4.98,2.16-7.57,2.99c-2.58,0.82-5.19,1.48-7.86,1.95c-1.52,0.27-3.05,0.5-4.58,0.62c-1.19,0.09-2.38,0.18-3.58,0.23
			c-1.23,0.05-2.47,0.08-3.71,0.05c-1.09-0.02-2.18-0.12-3.27-0.2c-1.54-0.1-3.07-0.31-4.59-0.55c-1.82-0.28-3.62-0.66-5.4-1.12
			c-3.8-0.98-7.48-2.29-11.03-3.95c-0.27-0.12-0.44-0.09-0.65,0.09c-0.5,0.42-1.03,0.82-1.54,1.23c-0.11,0.09-0.21,0.18-0.37,0.32
			c2.8,1.72,5.7,3.11,8.71,4.28c-0.1,0.85-3.98,7.35-5.47,9.16c-0.19-0.05-0.4-0.11-0.6-0.17c-3.24-1.04-6.41-2.26-9.5-3.67
			C15.09,76.19,12,74.52,9,72.67c-2.17-1.34-4.28-2.78-6.33-4.3c-0.21-0.16-0.34-0.31-0.35-0.59c-0.02-0.54-0.09-1.08-0.13-1.61
			c-0.08-1.12-0.15-2.23-0.21-3.35c-0.03-0.48-0.02-0.95-0.03-1.43c0-1.6-0.01-3.2,0-4.79c0.01-1.03,0.03-2.06,0.1-3.09
			c0.13-1.74,0.26-3.49,0.47-5.22c0.37-3.17,0.92-6.31,1.65-9.42c0.73-3.14,1.63-6.22,2.7-9.26c0.95-2.68,2.03-5.32,3.22-7.9
			c1.94-4.2,4.19-8.24,6.67-12.14c0.23-0.36,0.47-0.71,0.69-1.07c0.12-0.2,0.28-0.33,0.49-0.42c1.81-0.76,3.62-1.56,5.45-2.29
			c2.27-0.91,4.6-1.65,6.95-2.32c2.7-0.77,5.43-1.39,8.19-1.89c0.33-0.06,0.36-0.04,0.52,0.25c0.89,1.63,1.69,3.3,2.44,5
			c0.16,0.36,0.16,0.36,0.54,0.31c1.22-0.15,2.45-0.32,3.67-0.46c0.76-0.13,1.53-0.18,2.3-0.22c1.3-0.07,2.6-0.11,3.89-0.16
			c0.84-0.03,1.67-0.07,2.51-0.05c1.16,0.02,2.31,0.08,3.47,0.14c1.88,0.1,3.74,0.27,5.6,0.52c0.48,0.06,0.97,0.12,1.45,0.18
			c0.38,0.05,0.37,0.04,0.52-0.29c0.61-1.32,1.22-2.64,1.85-3.95c0.18-0.37,0.38-0.73,0.58-1.09c0.15-0.27,0.19-0.29,0.49-0.23
			c1.05,0.21,2.1,0.4,3.14,0.63c3.25,0.7,6.44,1.6,9.58,2.69c2.7,0.94,5.35,2,7.94,3.22c0.15,0.07,0.3,0.2,0.39,0.35
			c1.5,2.26,2.94,4.57,4.23,6.96c1,1.85,1.96,3.71,2.88,5.6c1.27,2.63,2.37,5.34,3.36,8.09c1.03,2.87,1.91,5.79,2.64,8.76
			c0.59,2.43,1.09,4.87,1.45,7.34c0.22,1.51,0.43,3.03,0.59,4.55c0.13,1.16,0.18,2.33,0.27,3.5c0.11,1.4,0.15,2.8,0.16,4.2
			c0,0.67,0.07,1.34,0.07,2c-0.01,1.11-0.05,2.21-0.1,3.32c-0.04,0.9-0.09,1.8-0.15,2.7c-0.06,0.79-0.14,1.59-0.2,2.38
			c-0.02,0.22-0.1,0.35-0.27,0.47c-1.08,0.77-2.15,1.55-3.24,2.3c-2.41,1.65-4.91,3.17-7.49,4.56C90.2,77,86.67,78.6,83.03,79.94
			c-1.32,0.48-2.65,0.92-3.98,1.38C78.89,81.39,78.72,81.43,78.52,81.49z M45.69,45.4c-0.07-0.65-0.1-1.31-0.2-1.95
			c-0.4-2.59-1.54-4.79-3.54-6.5c-1.94-1.65-4.18-2.39-6.73-2.06c-2.25,0.29-4.07,1.39-5.54,3.08c-1.35,1.55-2.15,3.37-2.51,5.39
			c-0.28,1.58-0.26,3.15,0.11,4.71c0.58,2.5,1.79,4.64,3.85,6.2c2.57,1.95,5.4,2.39,8.41,1.18c2.33-0.94,3.93-2.69,5-4.92
			C45.31,48.92,45.66,47.2,45.69,45.4z M70.49,56.12c1.4-0.01,2.63-0.29,3.78-0.85c1.98-0.97,3.42-2.49,4.41-4.44
			c1.15-2.26,1.5-4.66,1.15-7.16c-0.34-2.45-1.34-4.59-3.14-6.31c-1.92-1.84-4.2-2.73-6.88-2.49c-0.99,0.09-1.92,0.35-2.81,0.78
			c-2.19,1.07-3.71,2.78-4.7,4.98c-0.97,2.17-1.25,4.45-0.86,6.79c0.43,2.57,1.56,4.78,3.54,6.51
			C66.59,55.34,68.47,56.08,70.49,56.12z"/>
	</g>
</g>
</svg>
